PathFileType	4	(X/Y/Z)	Kaydara																																																																																																																									
DataRate	CameraRate	NumFrames	NumMarkers	Units	OrigDataRate	OrigDataStartFrame	OrigNumFrames																																																																																																																					
30	30	9	41	mm	30	94	147																																																																																																																					
Frame#	Time	PAIB_LFHD			PAIB_RFHD			PAIB_LBHD			PAIB_RBHD			PAIB_LFTShould			PAIB_RFTShould			PAIB_LRRShould			PAIB_RRRShould			PAIB_T10			PAIB_STRN			PAIB_TRUN			PAIB_LSHO			PAIB_LUPA			PAIB_LELB			PAIB_LFRM			PAIB_LWRA			PAIB_LWRB			PAIB_LFIN			PAIB_RSHO			PAIB_RUPA			PAIB_RELB			PAIB_RFRM			PAIB_RWRA			PAIB_RWRB			PAIB_RFIN			PAIB_LFWT			PAIB_RFWT			PAIB_LBWT			PAIB_RBWT			PAIB_LTHI			PAIB_LKNE			PAIB_LSHN			PAIB_LANK			PAIB_LHEE			PAIB_LTOE			PAIB_RTHI			PAIB_RKNE			PAIB_RSHN			PAIB_RANK			PAIB_RHEE			PAIB_RTOE		
		X1	Y1	Z1	X2	Y2	Z2	X3	Y3	Z3	X4	Y4	Z4	X5	Y5	Z5	X6	Y6	Z6	X7	Y7	Z7	X8	Y8	Z8	X9	Y9	Z9	X10	Y10	Z10	X11	Y11	Z11	X12	Y12	Z12	X13	Y13	Z13	X14	Y14	Z14	X15	Y15	Z15	X16	Y16	Z16	X17	Y17	Z17	X18	Y18	Z18	X19	Y19	Z19	X20	Y20	Z20	X21	Y21	Z21	X22	Y22	Z22	X23	Y23	Z23	X24	Y24	Z24	X25	Y25	Z25	X26	Y26	Z26	X27	Y27	Z27	X28	Y28	Z28	X29	Y29	Z29	X30	Y30	Z30	X31	Y31	Z31	X32	Y32	Z32	X33	Y33	Z33	X34	Y34	Z34	X35	Y35	Z35	X36	Y36	Z36	X37	Y37	Z37	X38	Y38	Z38	X39	Y39	Z39	X40	Y40	Z40	X41	Y41	Z41
																																																																																																																												
56	3.103	228.99765	1667.9953	-1188.81218	44.28813	1661.29959	-1203.22227	247.34873	1636.87363	-1313.31665	44.43536	1641.21597	-1317.06772	203.72625	1401.35941	-1197.70889	82.24244	1393.02216	-1211.2635	225.82541	1467.97119	-1341.21017	71.99812	1463.40576	-1345.72815	158.52738	1309.98398	-1430.81985	149.88052	1330.21912	-1169.34265	151.54905	1227.80464	-1151.99371	338.54645	1416.30615	-1264.04297	408.45673	1195.40886	-1253.51265	435.3019	1110.7061	-1284.55078	442.53769	1010.56908	-1205.80376	369.57829	938.32306	-1089.49234	410.43468	893.8166	-1144.1684	415.43365	882.61703	-1071.27869	-42.40158	1395.63766	-1282.5267	-99.81591	1235.05211	-1366.34201	-121.76685	1123.88481	-1399.04266	-151.95481	987.69119	-1405.20905	-122.65571	858.01491	-1323.31375	-176.64343	862.09091	-1389.17633	-187.06463	812.53662	-1334.09607	271.75837	941.00693	-1214.76662	38.89616	950.93475	-1198.51936	193.82956	994.36722	-1426.05927	50.28955	988.68851	-1416.0614	237.01927	744.71481	-1450.07919	266.04414	497.491	-1400.19363	222.40797	295.95819	-1416.93558	205.06973	121.65326	-1525.43182	147.14579	120.97374	-1571.82556	197.28901	69.10296	-1359.23737	-10.32693	683.02231	-1302.73056	-11.83294	496.45218	-1119.36317	39.66543	320.23232	-1057.2908	5.23473	104.88183	-1088.80249	71.93582	102.88364	-1142.73674	24.3703	102.2499	-923.72017
57	3.137	226.99049	1659.55093	-1153.87451	42.61392	1651.99982	-1168.92624	245.88898	1628.16406	-1278.25378	43.00813	1631.7424	-1282.74673	202.4445	1392.79373	-1161.66595	80.99259	1383.78189	-1176.16547	225.51788	1458.76144	-1305.73502	71.72311	1453.48694	-1310.90012	159.48027	1299.96063	-1394.74243	148.44747	1321.72409	-1133.53867	150.35551	1219.42726	-1115.63034	337.63142	1408.42697	-1227.36374	408.7392	1188.22899	-1212.60887	435.92201	1103.18451	-1241.30379	441.16905	1005.56175	-1158.67538	365.68813	938.27202	-1040.98167	406.96465	891.44119	-1093.29765	410.89928	883.09883	-1020.05318	-43.0602	1385.86655	-1248.68332	-98.77817	1225.46051	-1334.62997	-119.99928	1114.60258	-1367.9837	-150.83312	978.8636	-1375.83572	-125.11665	848.48007	-1293.72055	-176.81213	853.32283	-1361.16379	-189.21303	803.14667	-1307.12662	271.13602	932.39998	-1176.72699	38.97917	944.00726	-1159.59633	193.34044	985.01373	-1388.18024	49.73263	979.32686	-1377.60513	236.47604	745.15556	-1419.26407	265.33222	495.29938	-1382.7298	222.43343	294.46308	-1407.5563	204.14364	124.39291	-1522.94693	145.88515	125.28473	-1568.65814	198.13557	68.61425	-1358.93082	-7.01358	672.25769	-1268.1649	-11.77538	485.19184	-1085.12253	43.18291	325.24597	-993.37067	5.98889	109.60064	-987.37305	71.61837	95.88467	-1043.5498	28.03706	131.74088	-823.40782
58	3.17	224.66869	1652.02255	-1117.83791	39.80942	1644.38797	-1133.24295	244.09172	1619.79218	-1241.94717	41.23695	1622.84073	-1247.28516	200.97109	1383.68118	-1124.02847	79.31653	1374.56604	-1139.09508	224.41019	1450.10834	-1268.06152	70.44067	1443.99307	-1273.96378	158.95727	1290.70908	-1356.49323	146.78205	1313.0806	-1095.8744	149.19748	1210.45082	-1078.19229	336.11443	1399.7197	-1189.02359	407.94945	1179.80667	-1172.09923	435.37018	1094.68643	-1198.92838	439.52827	998.9035	-1114.15512	362.55165	934.55353	-996.22055	404.33475	886.59805	-1046.46133	407.77172	880.25459	-972.99255	-44.34052	1375.67993	-1212.37427	-98.95441	1214.92393	-1298.69431	-120.05514	1104.02809	-1331.70532	-150.99423	968.7365	-1340.56244	-126.5869	838.08556	-1258.72902	-177.45174	843.26965	-1326.67191	-190.61615	792.95586	-1273.03101	271.66891	924.6199	-1137.91733	39.47889	936.2822	-1119.94484	190.54115	976.24649	-1349.36066	46.89969	970.19753	-1338.69614	231.90311	742.82036	-1382.81906	264.20862	492.0649	-1357.07916	222.85671	293.21838	-1393.95584	203.61904	129.81863	-1518.50494	144.70777	132.81908	-1563.40729	198.82689	68.14591	-1358.26172	-10.11686	663.19374	-1227.06154	-10.43093	478.34171	-1042.42508	45.78143	325.32421	-942.08832	12.50353	110.20284	-921.06384	78.13264	93.15088	-977.03941	35.55253	148.16828	-760.03555
59	3.203	222.24161	1646.52908	-1080.90225	37.33621	1639.07684	-1096.66878	241.94605	1613.11569	-1204.56703	39.14325	1616.42654	-1210.64049	198.79339	1377.17056	-1085.05013	77.07845	1368.08716	-1100.55656	222.44549	1443.49655	-1229.37897	68.26931	1436.98914	-1235.84328	157.42503	1283.63022	-1317.24945	144.76951	1306.75476	-1056.30272	146.80346	1204.15611	-1038.68149	333.79356	1393.10867	-1149.65988	405.17849	1173.17108	-1131.59302	433.07453	1088.12271	-1157.76573	437.48295	992.79655	-1072.81319	360.57209	928.71628	-954.87785	402.75581	880.68588	-1004.74388	406.23814	874.99191	-931.37047	-46.32741	1368.07465	-1174.15573	-100.16015	1205.92308	-1258.36555	-120.88205	1094.81758	-1290.24521	-151.70195	959.7879	-1298.69278	-126.92886	829.07158	-1217.15721	-178.47906	834.49463	-1284.64706	-191.23659	784.23248	-1230.90759	269.86673	918.16284	-1096.07895	38.01704	931.16051	-1078.37151	187.40791	969.46999	-1307.72125	44.05313	964.02916	-1297.9599	225.91742	740.39665	-1343.30933	263.97787	490.4826	-1326.28693	224.23264	293.5618	-1376.92352	205.89766	138.70784	-1512.19727	147.26689	144.52851	-1556.92215	199.90534	67.8406	-1357.66937	-13.93289	659.13002	-1179.19479	-6.27758	475.70267	-993.98254	52.29312	318.03637	-901.75743	19.16701	102.35272	-889.21402	83.16041	87.07836	-947.57881	47.41138	134.67256	-728.68385
60	3.237	219.75384	1643.56659	-1043.11729	35.0413	1636.80786	-1059.09302	239.49839	1609.25018	-1166.55838	36.74922	1613.46191	-1172.96707	195.20426	1374.73297	-1045.07973	73.69878	1365.65598	-1060.89813	219.67878	1439.42184	-1190.2739	65.39304	1432.4411	-1197.22984	154.94425	1278.04657	-1276.17233	140.96283	1304.58679	-1015.79765	142.51146	1202.36847	-996.38359	330.75504	1389.77371	-1109.65416	401.35643	1169.46281	-1091.76544	429.13586	1084.49959	-1118.50021	434.97803	987.95441	-1035.17685	359.63879	921.10718	-917.67685	401.77197	874.38568	-968.84766	406.15482	867.62047	-895.62576	-49.54621	1364.39438	-1134.84062	-102.27484	1199.91646	-1215.33485	-122.13422	1088.1826	-1245.2253	-152.3272	952.97394	-1251.54785	-126.4816	823.36662	-1168.54141	-178.74355	827.89452	-1235.66444	-190.76635	778.25371	-1181.11816	265.92102	913.88397	-1050.70938	34.32173	929.39278	-1032.66083	183.28405	966.73309	-1262.07153	39.67602	961.4016	-1252.36206	220.82487	740.75218	-1301.73676	263.82788	490.91763	-1292.38678	225.86487	295.7192	-1355.14938	210.25007	152.02916	-1502.56561	152.17158	161.38332	-1547.26685	201.39774	67.55281	-1356.62628	-12.31702	658.02719	-1130.72296	-0.15494	473.37788	-947.12204	60.94451	306.69474	-870.44235	28.97108	89.35254	-884.90158	90.21792	83.05212	-938.44368	56.23127	102.84833	-720.73006
61	3.27	217.27695	1646.18561	-1005.06813	32.42309	1640.67841	-1020.72929	236.54158	1610.9433	-1128.35289	33.80936	1616.62323	-1134.53568	191.81709	1377.87689	-1002.96112	69.90302	1368.58002	-1019.16	216.08608	1440.08575	-1149.97391	61.62169	1432.41974	-1156.99356	150.78998	1276.66702	-1231.61888	136.81946	1307.76016	-973.22281	138.44447	1206.12038	-951.59981	327.44366	1390.4483	-1069.15016	396.94923	1169.10194	-1053.05298	423.17036	1083.96805	-1080.56969	431.77467	985.04105	-1001.30318	359.64828	912.71484	-885.12207	401.39412	868.75061	-938.92433	407.28451	859.10225	-866.12206	-53.31247	1365.18784	-1093.66798	-105.337	1197.92259	-1169.87526	-124.22796	1085.02525	-1196.30173	-152.82446	949.46922	-1199.34814	-125.27813	822.08847	-1113.46786	-177.96686	824.52477	-1180.42542	-189.0184	776.11267	-1124.60732	261.20026	914.0657	-1003.37624	29.97407	932.64168	-985.25848	178.73167	969.26804	-1214.36485	34.57302	965.63187	-1205.53612	216.71202	741.42273	-1255.10902	263.33359	493.00423	-1247.02858	227.40993	300.34496	-1324.55978	215.66206	172.17499	-1486.23077	157.47698	185.61657	-1529.75433	202.7112	67.06514	-1354.54865	-10.96412	660.51407	-1089.71046	0.02876	475.5056	-907.11853	66.91476	304.85046	-839.79919	30.53165	95.62739	-869.81827	88.77833	87.06562	-923.56918	65.06444	87.55482	-695.20447
62	3.303	214.73806	1652.30286	-967.11227	29.77103	1647.83997	-982.07787	233.35232	1615.47058	-1089.95018	30.59819	1622.39883	-1095.58548	187.7599	1384.4017	-961.64009	66.17685	1375.19516	-976.88385	212.04687	1445.05875	-1108.52364	57.64083	1437.22992	-1115.19241	146.4989	1280.65979	-1188.50922	132.86592	1315.1535	-930.20081	134.29923	1213.95058	-906.90872	323.78952	1396.02142	-1027.68791	390.63534	1173.25867	-1015.43159	415.45498	1088.17024	-1045.63004	427.88406	985.93353	-972.2052	360.69214	905.79262	-858.11699	401.13358	865.84358	-915.69412	409.65996	851.90384	-843.84926	-57.40408	1371.09695	-1050.42053	-108.54171	1200.44479	-1119.58618	-126.71653	1086.65627	-1142.80212	-153.73919	950.70145	-1141.33865	-122.78239	826.22269	-1052.35916	-176.6913	825.9491	-1118.28323	-186.22189	779.1803	-1060.87135	255.42097	919.60419	-954.92035	24.38	939.8806	-939.09637	176.49817	973.38295	-1167.3835	32.21852	972.30919	-1159.86053	213.83524	737.78404	-1201.55876	264.3359	490.88432	-1180.78743	231.16232	305.43303	-1279.46556	221.72945	199.53573	-1457.53815	163.63993	219.7871	-1498.26859	203.20387	66.59651	-1354.29779	-18.77066	666.30753	-1047.66632	-2.81425	476.38897	-869.94598	63.34604	300.85283	-815.43053	27.80512	87.54684	-852.02721	86.08837	90.18689	-916.73241	61.61222	72.37512	-691.65924
63	3.337	212.44263	1659.90799	-929.08401	27.35263	1655.94757	-943.15971	230.3466	1621.17538	-1051.48849	27.60523	1628.9299	-1056.41937	184.33605	1392.53357	-920.58876	62.96364	1383.19809	-934.28001	207.36038	1452.24731	-1067.45773	53.11098	1444.54422	-1072.0816	140.65336	1287.71759	-1147.2084	129.92738	1323.59238	-887.8479	131.42952	1222.43217	-864.0963	319.95081	1403.87589	-987.06734	384.84104	1180.14786	-980.18196	407.82318	1095.30632	-1013.73985	423.91605	989.50844	-947.03903	361.89022	900.95131	-835.78003	400.34546	865.60043	-897.40562	412.03709	846.83212	-827.23488	-61.56465	1379.44992	-1004.8774	-113.24218	1206.18607	-1066.83334	-130.23391	1091.21201	-1086.68228	-154.77829	954.60106	-1078.91418	-118.92797	834.31442	-986.60484	-174.63369	830.50438	-1049.94553	-181.60343	786.20895	-990.271	250.07309	926.10115	-911.45576	18.62813	947.73506	-895.40314	173.92679	977.00729	-1124.1082	29.67007	978.8047	-1116.61247	212.80819	725.17166	-1143.73688	267.75618	478.9814	-1098.04962	234.59717	308.99111	-1217.08771	229.22174	233.35941	-1410.0206	171.66744	262.54093	-1446.09329	201.45353	73.38401	-1355.90836	-25.48903	673.07854	-1007.94838	-3.978	478.37177	-838.93036	63.45152	298.21476	-799.94728	26.52099	88.32314	-855.70732	82.30108	92.50444	-915.12283	64.42858	68.38718	-690.32974
64	3.37	210.6531	1666.34186	-890.93063	25.41332	1662.78473	-903.77922	227.63824	1626.49948	-1013.10539	24.92551	1634.77661	-1016.85715	183.64744	1398.78983	-880.73318	61.9025	1389.46701	-891.55289	202.99578	1458.95294	-1028.04916	48.52007	1451.16043	-1028.61923	134.02756	1294.70764	-1107.26768	129.68394	1329.64264	-846.62727	131.65237	1228.27255	-823.47412	317.3934	1410.73563	-949.32045	380.49046	1186.30775	-946.93527	402.88284	1102.12486	-983.78189	421.10027	993.38097	-923.50784	362.48131	897.0726	-816.68007	399.95239	866.3472	-881.34987	413.32008	842.8801	-812.95143	-64.29176	1386.63483	-957.38998	-118.42159	1211.98586	-1012.491	-135.02243	1095.75668	-1028.7233	-156.79843	958.68561	-1013.45245	-114.03177	844.64424	-916.0601	-172.20665	835.79597	-976.88248	-175.87278	795.02838	-914.68506	246.16695	930.62981	-871.623	14.25907	953.97446	-855.1799	171.29015	979.10843	-1086.00662	26.76467	986.03554	-1076.31729	212.73239	705.87234	-1083.15781	270.59525	469.04396	-1008.42903	234.09039	316.13567	-1143.69461	231.07752	264.05888	-1343.59909	177.11504	302.27421	-1376.56586	203.61992	87.79567	-1313.29498	-28.07374	680.24269	-981.5844	-4.91222	477.79465	-818.74573	63.5163	295.68157	-790.46295	25.46573	88.47574	-853.57292	80.80709	94.38142	-914.03549	66.07885	66.90662	-689.52164
